<svg width="26.000000" height="26.000000" viewBox="0 0 26 26" fill="none" xmlns="http://www.w3.org/2000/svg" xmlns:xlink="http://www.w3.org/1999/xlink">
	<desc>
			Created with Pixso.
	</desc>
	<defs>
		<clipPath id="clip143_1795">
			<rect id="ph:map-pin-fill" width="15.000000" height="15.000000" transform="translate(5.500000 5.500000)" fill="white" fill-opacity="0"/>
		</clipPath>
	</defs>
	<rect id="Frame 133711" rx="4.000000" width="26.000000" height="26.000000" fill="#F4F6F8" fill-opacity="0.200000"/>
	<rect id="ph:map-pin-fill" width="15.000000" height="15.000000" transform="translate(5.500000 5.500000)" fill="#FFFFFF" fill-opacity="0"/>
	<g clip-path="url(#clip143_1795)">
		<path id="Vector" d="M13 5.84C11.5 5.84 10.07 6.43 9.02 7.49C7.96 8.54 7.37 9.97 7.37 11.46C7.37 16.27 12.48 19.91 12.7 20.06C12.79 20.12 12.89 20.15 13 20.15C13.1 20.15 13.2 20.12 13.29 20.06C13.51 19.91 18.62 16.27 18.62 11.46C18.62 9.97 18.03 8.54 16.97 7.49C15.92 6.43 14.49 5.84 13 5.84ZM13 9.42C13.4 9.42 13.8 9.54 14.13 9.76C14.47 9.98 14.73 10.3 14.88 10.68C15.04 11.05 15.08 11.46 15 11.86C14.92 12.26 14.73 12.62 14.44 12.91C14.16 13.19 13.79 13.39 13.39 13.47C13 13.55 12.59 13.51 12.21 13.35C11.84 13.2 11.52 12.93 11.29 12.6C11.07 12.26 10.95 11.87 10.95 11.46C10.95 10.92 11.17 10.4 11.55 10.01C11.93 9.63 12.45 9.42 13 9.42Z" fill="#FFFFFF" fill-opacity="1.000000" fill-rule="nonzero"/>
	</g>
</svg>
