<svg width="27.000000" height="29.000000" viewBox="0 0 27 29" fill="none" xmlns="http://www.w3.org/2000/svg" xmlns:xlink="http://www.w3.org/1999/xlink">
	<desc>
			Created with Pixso.
	</desc>
	<defs/>
	<path id="Vector" d="M21.08 14C21.08 18.46 17.46 22.08 13 22.08C8.53 22.08 4.91 18.46 4.91 14C4.91 9.53 8.53 5.91 13 5.91C17.46 5.91 21.08 9.53 21.08 14Z" fill="#5B7DDE" fill-opacity="1.000000" fill-rule="evenodd"/>
	<path id="Vector" d="M12.71 4.48C13.43 4.68 14.17 4.11 14.15 3.37L14.15 1.15C14.17 0.41 13.43 -0.16 12.71 0.03L12.71 0.03C12.2 0.16 11.85 0.62 11.85 1.15L11.85 3.37C11.84 3.89 12.2 4.35 12.71 4.48ZM6.68 5.37C6.95 5.82 7.48 6.04 7.99 5.91C8.71 5.72 9.07 4.85 8.69 4.22L7.58 2.29C7.21 1.65 6.28 1.52 5.77 2.05C5.39 2.42 5.31 2.99 5.57 3.45L6.68 5.37ZM1.3 8.58L3.22 9.69C3.68 9.95 4.25 9.87 4.62 9.49C5.15 8.97 5.03 8.05 4.38 7.68L2.46 6.57C1.9 6.26 1.2 6.44 0.88 7C0.83 7.08 0.79 7.18 0.77 7.27C0.62 7.78 0.84 8.31 1.3 8.58ZM3.49 14.28C3.69 13.57 3.12 12.82 2.37 12.84L0.15 12.84C-0.58 12.82 -1.16 13.57 -0.96 14.28C-0.83 14.79 -0.37 15.15 0.15 15.15L2.37 15.15C2.89 15.15 3.35 14.79 3.49 14.28ZM4.91 19C4.72 18.28 3.85 17.93 3.22 18.31L1.29 19.42C0.75 19.74 0.55 20.44 0.87 21C0.92 21.08 0.98 21.16 1.05 21.23C1.42 21.6 1.99 21.68 2.45 21.42L4.38 20.31C4.83 20.05 5.05 19.51 4.91 19ZM8.49 22.37C8.42 22.3 8.35 22.24 8.26 22.19C7.71 21.88 7 22.06 6.68 22.61L5.57 24.54C5.26 25.09 5.45 25.8 6 26.11C6.09 26.16 6.18 26.2 6.27 26.23C6.78 26.37 7.31 26.15 7.58 25.69L8.69 23.77C8.95 23.32 8.87 22.75 8.49 22.37ZM13.28 23.51C12.57 23.31 11.82 23.88 11.84 24.62L11.84 26.84C11.82 27.58 12.56 28.15 13.28 27.96C13.79 27.83 14.15 27.37 14.15 26.84L14.15 24.62C14.15 24.1 13.79 23.64 13.28 23.51ZM19.31 22.62C19.04 22.17 18.51 21.95 18 22.08C17.91 22.11 17.81 22.15 17.73 22.2C17.17 22.52 16.98 23.22 17.3 23.77L18.41 25.7C18.74 26.25 19.44 26.44 20 26.12C20.08 26.07 20.16 26.01 20.23 25.94C20.6 25.57 20.68 25 20.42 24.54L19.31 22.62ZM24.7 19.41L22.77 18.3C22.32 18.04 21.75 18.12 21.37 18.5C20.84 19.02 20.97 19.95 21.61 20.31L23.54 21.42C24.09 21.73 24.8 21.54 25.11 20.99C25.16 20.9 25.2 20.81 25.23 20.72C25.37 20.22 25.15 19.68 24.7 19.41ZM27 14C27 13.9 26.98 13.8 26.96 13.71L26.96 13.71C26.83 13.2 26.37 12.85 25.84 12.85L23.62 12.85C23.1 12.85 22.64 13.2 22.51 13.71C22.31 14.43 22.88 15.17 23.62 15.16L25.84 15.16C26.48 15.15 27 14.63 27 14ZM21.08 8.99C21.27 9.71 22.14 10.06 22.77 9.68L24.7 8.57C25.25 8.25 25.44 7.54 25.12 6.99C25.07 6.9 25.01 6.83 24.94 6.75L24.94 6.76C24.57 6.39 24 6.31 23.54 6.57L21.61 7.68C21.17 7.95 20.95 8.48 21.08 8.99ZM17.5 5.62C18.02 6.15 18.95 6.02 19.31 5.38L20.42 3.45C20.79 2.82 20.44 1.95 19.72 1.76C19.21 1.62 18.68 1.84 18.41 2.3L17.3 4.22C17.05 4.67 17.12 5.25 17.5 5.62Z" fill="#5B7DDE" fill-opacity="1.000000" fill-rule="nonzero"/>
</svg>
