<svg width="42.000000" height="42.000000" viewBox="0 0 42 42" fill="none" xmlns="http://www.w3.org/2000/svg" xmlns:xlink="http://www.w3.org/1999/xlink">
	<desc>
			Created with Pixso.
	</desc>
	<defs/>
	<path id="Vector" d="M33.79 42L7.54 42C5.45 42 3.45 41.17 1.97 39.69C0.49 38.21 -0.34 36.21 -0.34 34.12L-0.34 7.87C-0.34 5.78 0.49 3.78 1.97 2.3C3.45 0.82 5.45 0 7.54 0L33.79 0C35.88 0 37.88 0.82 39.36 2.3C40.83 3.78 41.66 5.78 41.66 7.87L41.66 34.12C41.66 36.21 40.83 38.21 39.36 39.69C37.88 41.17 35.88 42 33.79 42Z" fill="#F4F6F8" fill-opacity="1.000000" fill-rule="nonzero"/>
	<path id="Vector" d="M30.72 12.09L26.12 10.53C25.99 10.48 25.84 10.48 25.7 10.53L21.11 12.09C20.98 12.14 20.86 12.22 20.78 12.33C20.7 12.44 20.66 12.58 20.66 12.71L20.66 16.23C20.66 20.52 25.45 22.61 25.66 22.69C25.74 22.73 25.82 22.75 25.91 22.75C26 22.75 26.09 22.73 26.17 22.69C26.37 22.61 31.16 20.52 31.16 16.23L31.16 12.71C31.16 12.58 31.12 12.44 31.04 12.33C30.96 12.22 30.85 12.14 30.72 12.09ZM28.79 15.41L26.38 18.47C26.31 18.57 26.22 18.64 26.11 18.7C26.01 18.76 25.9 18.79 25.78 18.8C25.66 18.81 25.54 18.8 25.43 18.77C25.32 18.73 25.21 18.67 25.12 18.6L23.59 17.28C23.51 17.21 23.43 17.12 23.38 17.02C23.33 16.91 23.3 16.8 23.29 16.69C23.28 16.57 23.29 16.46 23.33 16.35C23.37 16.24 23.42 16.14 23.5 16.05C23.57 15.96 23.66 15.89 23.77 15.84C23.87 15.79 23.98 15.76 24.09 15.75C24.21 15.74 24.32 15.75 24.43 15.79C24.54 15.82 24.64 15.88 24.73 15.96L25.57 16.67L27.41 14.33C27.56 14.15 27.77 14.03 28 14C28.23 13.97 28.46 14.04 28.64 14.18C28.82 14.33 28.94 14.54 28.97 14.77C29 15 28.93 15.23 28.79 15.41Z" fill="#95AAF1" fill-opacity="1.000000" fill-rule="nonzero"/>
	<path id="Vector" d="M31.16 22.96C31.16 23.8 30.47 24.5 29.63 24.5L28.53 24.5C28.52 25.41 28.27 26.31 27.81 27.11C27.36 27.9 26.7 28.57 25.91 29.04L25.91 29.96C25.91 30.8 25.22 31.5 24.38 31.5L23.5 31.5C23.1 31.49 22.71 31.33 22.42 31.04C22.14 30.76 21.98 30.37 21.97 29.96L21.97 29.74L18.47 29.74L18.47 29.96C18.47 30.8 17.78 31.5 16.94 31.5L16.07 31.5C15.23 31.5 14.54 30.8 14.54 29.96L14.54 28.75C13.34 27.96 12.48 26.75 12.12 25.37L11.69 25.37C10.85 25.37 10.16 24.68 10.16 23.84L10.16 22.53C10.16 21.69 10.85 21 11.69 21L12.91 21C13.12 20.68 13.37 20.38 13.65 20.1C13.92 19.82 14.22 19.58 14.54 19.37L14.54 16.4C14.54 16.21 14.63 16.02 14.76 15.9C14.84 15.84 14.92 15.8 15.01 15.77C15.1 15.75 15.2 15.74 15.29 15.75C17.63 16.1 18.51 17.28 18.8 18.37L19.23 18.37C20.2 21.5 23.11 23.52 24.97 24.3C25.27 24.43 25.6 24.5 25.91 24.5C26.23 24.5 26.55 24.43 26.85 24.3C27.44 24.06 28.13 23.68 28.84 23.18L29.63 23.18C29.75 23.18 29.85 23.09 29.85 22.96C29.85 22.84 29.75 22.74 29.63 22.74C29.57 22.74 29.52 22.74 29.46 22.72C29.83 22.43 30.2 22.11 30.54 21.74C30.92 22.02 31.16 22.47 31.16 22.96Z" fill="#5B7DDE" fill-opacity="1.000000" fill-rule="nonzero"/>
</svg>
