<svg width="24.000000" height="27.000000" viewBox="0 0 24 27" fill="none" xmlns="http://www.w3.org/2000/svg" xmlns:xlink="http://www.w3.org/1999/xlink">
	<desc>
			Created with Pixso.
	</desc>
	<defs/>
	<path id="Vector" d="M11.65 27L11.4 27C11.39 26.99 11.38 26.98 11.37 26.98C10.65 26.82 10.32 26.4 10.32 25.67L10.32 23.68C9.81 23.97 9.33 24.24 8.85 24.52C8.55 24.7 8.24 24.79 7.89 24.69C7.4 24.56 7.1 24.24 7 23.76C6.9 23.24 7.12 22.76 7.57 22.5C8.44 22 9.31 21.49 10.18 21C10.28 20.96 10.33 20.86 10.32 20.77C10.31 18.92 10.31 17.07 10.31 15.23L10.31 15.06C10.26 15.09 10.24 15.1 10.23 15.11C8.6 16.05 6.98 16.98 5.35 17.92C5.28 17.95 5.24 18.03 5.25 18.11C5.25 19.09 5.25 20.06 5.25 21.03C5.25 21.13 5.24 21.23 5.23 21.33C5.17 21.86 4.65 22.42 3.89 22.34C3.34 22.28 2.85 21.75 2.85 21.15L2.85 19.37L2.78 19.41C2.2 19.74 1.62 20.08 1.05 20.41C0.79 20.57 0.49 20.63 0.2 20.6C-0.27 20.53 -0.65 20.19 -0.78 19.73C-0.9 19.29 -0.76 18.75 -0.39 18.5C-0.01 18.24 0.4 18.02 0.8 17.79C1.08 17.62 1.36 17.46 1.66 17.29C1.14 16.99 0.64 16.71 0.15 16.42C-0.33 16.14 -0.59 15.63 -0.48 15.16C-0.27 14.27 0.58 13.9 1.38 14.36C2.22 14.85 3.07 15.33 3.91 15.82C4 15.88 4.11 15.88 4.2 15.82C5.65 14.98 7.1 14.14 8.55 13.31C8.72 13.21 8.88 13.12 9.05 13.01L8.27 12.56C6.9 11.77 5.52 10.98 4.14 10.18C4.02 10.1 3.94 10.11 3.81 10.18C2.99 10.66 2.17 11.14 1.34 11.61C1.07 11.78 0.75 11.83 0.45 11.77C0.03 11.69 -0.37 11.32 -0.45 10.89C-0.56 10.41 -0.44 9.98 -0.04 9.68C0.23 9.47 0.55 9.31 0.85 9.13C1.09 8.99 1.33 8.86 1.59 8.71C1.52 8.67 1.48 8.64 1.43 8.61C0.9 8.3 0.36 8 -0.18 7.68C-0.72 7.36 -0.94 6.67 -0.66 6.13C-0.36 5.55 0.31 5.28 0.89 5.55C1.22 5.7 1.54 5.91 1.86 6.09C2.19 6.28 2.52 6.47 2.86 6.67L2.86 4.78C2.86 4.03 3.6 3.46 4.33 3.64C4.89 3.79 5.25 4.26 5.25 4.87L5.25 7.94C5.25 8.02 5.29 8.11 5.38 8.14C6.75 8.93 8.12 9.71 9.49 10.51L10.31 10.98C10.32 10.96 10.32 10.94 10.32 10.92L10.32 5.14C10.32 5.08 10.29 5.04 10.25 5.01C9.94 4.82 9.62 4.65 9.31 4.47C8.7 4.11 8.09 3.77 7.49 3.4C7.08 3.15 6.89 2.6 7.02 2.16C7.24 1.35 8.05 1 8.79 1.41C9.08 1.58 9.38 1.75 9.67 1.92C9.88 2.04 10.09 2.16 10.32 2.29L10.32 0.28C10.32 -0.34 10.67 -0.81 11.23 -0.95L11.4 -0.99L11.65 -0.99C11.67 -0.98 11.69 -0.97 11.7 -0.97C12.31 -0.86 12.71 -0.4 12.71 0.22L12.71 2.28C12.78 2.24 12.83 2.21 12.88 2.18C13.33 1.93 13.78 1.66 14.22 1.41C14.53 1.23 14.85 1.17 15.19 1.28C15.68 1.43 15.98 1.77 16.04 2.28C16.1 2.78 15.9 3.19 15.45 3.46C14.57 3.98 13.69 4.49 12.81 4.99C12.74 5.03 12.7 5.1 12.7 5.17L12.7 10.79C12.7 10.82 12.71 10.86 12.71 10.91L13.17 10.64C14.66 9.78 16.15 8.92 17.64 8.06C17.75 8.01 17.81 7.91 17.79 7.79C17.78 6.83 17.78 5.87 17.79 4.91C17.79 4.71 17.82 4.51 17.89 4.33C18.08 3.82 18.66 3.53 19.2 3.63C19.73 3.72 20.15 4.18 20.16 4.72C20.18 5.28 20.17 5.85 20.17 6.42L20.17 6.6L20.33 6.51C20.86 6.2 21.39 5.9 21.92 5.58C22.17 5.44 22.47 5.39 22.75 5.44C23.26 5.53 23.62 5.91 23.72 6.44C23.8 6.88 23.58 7.37 23.17 7.63C22.83 7.84 22.48 8.03 22.13 8.23L21.38 8.67C21.42 8.69 21.43 8.7 21.44 8.71C21.96 9.01 22.47 9.3 22.97 9.6C23.34 9.82 23.55 10.23 23.52 10.65C23.47 11.57 22.5 12.08 21.7 11.62C20.84 11.12 19.97 10.62 19.1 10.12C19.03 10.06 18.93 10.06 18.86 10.11C17.57 10.87 16.26 11.62 14.96 12.37L13.84 13.02C14.16 13.21 14.46 13.39 14.76 13.56C16.1 14.34 17.44 15.11 18.78 15.89C18.86 15.94 18.95 15.94 19.03 15.89C19.94 15.36 20.85 14.84 21.77 14.31C22.04 14.15 22.38 14.12 22.67 14.23C23.18 14.39 23.47 14.76 23.52 15.28C23.56 15.75 23.36 16.12 22.96 16.37C22.69 16.55 22.4 16.7 22.12 16.87L21.31 17.34C21.35 17.36 21.37 17.38 21.39 17.39L23.14 18.4C23.55 18.63 23.77 18.99 23.78 19.45C23.79 20.36 22.8 20.94 22 20.5C21.63 20.3 21.26 20.08 20.9 19.86C20.66 19.73 20.43 19.6 20.18 19.45L20.18 20.94C20.18 21.05 20.17 21.17 20.16 21.27C20.1 21.9 19.56 22.36 18.93 22.35C18.3 22.33 17.78 21.77 17.78 21.18C17.79 20.18 17.78 19.19 17.78 18.19C17.78 18.12 17.76 18.06 17.71 18.03C17.44 17.86 17.16 17.7 16.89 17.54C15.57 16.78 14.26 16.02 12.94 15.26C12.86 15.22 12.79 15.18 12.7 15.13C12.7 17.05 12.7 18.93 12.7 20.82C12.71 20.87 12.74 20.92 12.79 20.95C13.18 21.18 13.57 21.41 13.96 21.63C14.49 21.94 15.02 22.23 15.54 22.56C16.03 22.87 16.18 23.51 15.93 24.05C15.69 24.57 15.09 24.86 14.54 24.68C14.23 24.57 13.96 24.39 13.67 24.23C13.35 24.06 13.04 23.87 12.7 23.68L12.7 25.79C12.7 26.19 12.54 26.52 12.22 26.74C12.06 26.86 11.85 26.91 11.65 27Z" fill="#5B7DDE" fill-opacity="1.000000" fill-rule="nonzero"/>
</svg>
