<svg width="42.000000" height="42.000000" viewBox="0 0 42 42" fill="none" xmlns="http://www.w3.org/2000/svg" xmlns:xlink="http://www.w3.org/1999/xlink">
	<desc>
			Created with Pixso.
	</desc>
	<defs/>
	<path id="Vector" d="M33.45 42L7.2 42C5.11 42 3.11 41.17 1.63 39.69C0.16 38.21 -0.67 36.21 -0.67 34.12L-0.67 7.87C-0.67 5.78 0.16 3.78 1.63 2.3C3.11 0.82 5.11 0 7.2 0L33.45 0C35.54 0 37.54 0.82 39.02 2.3C40.5 3.78 41.33 5.78 41.33 7.87L41.33 34.12C41.33 36.21 40.5 38.21 39.02 39.69C37.54 41.17 35.54 42 33.45 42Z" fill="#F4F6F8" fill-opacity="1.000000" fill-rule="nonzero"/>
	<path id="Vector" d="M17.36 21.65L10.69 21.66L11.27 15.34C11.33 14.75 11.6 14.19 12.05 13.79C12.49 13.38 13.07 13.16 13.67 13.16L14.46 13.16C14.29 13.72 14.21 14.31 14.21 14.92C14.2 17.64 16.01 20.16 17.36 21.65ZM21.54 23.4L15.92 31.5L12.41 31.5C11.73 31.5 11.08 31.21 10.62 30.71C10.17 30.21 9.95 29.54 10.01 28.86L10.52 23.41L19.34 23.4L21.54 23.4ZM23.3 21.65C24.65 20.16 26.45 17.64 26.45 14.92C26.45 14.31 26.37 13.71 26.2 13.16L26.99 13.16C28.24 13.16 29.26 14.1 29.39 15.34L29.97 21.64L23.3 21.65ZM30.14 23.39L23.67 23.4L18.05 31.5L28.25 31.5C28.59 31.5 28.92 31.43 29.22 31.29C29.53 31.15 29.8 30.96 30.03 30.71C30.26 30.46 30.43 30.17 30.53 29.85C30.64 29.53 30.68 29.2 30.65 28.86L30.14 23.39Z" fill="#5B7DDE" fill-opacity="1.000000" fill-rule="nonzero"/>
	<path id="Vector" d="M20.33 10.5C17.92 10.5 15.96 12.48 15.96 14.92C15.96 18.3 19.74 21.57 19.9 21.71C20.02 21.82 20.17 21.87 20.33 21.87C20.49 21.87 20.64 21.82 20.76 21.71C20.92 21.58 24.7 18.3 24.7 14.92C24.7 12.48 22.74 10.5 20.33 10.5ZM20.33 16.62C19.88 16.6 19.46 16.41 19.14 16.08C18.83 15.75 18.66 15.32 18.66 14.87C18.66 14.42 18.83 13.99 19.14 13.66C19.46 13.34 19.88 13.14 20.33 13.12C20.79 13.13 21.22 13.32 21.54 13.65C21.85 13.98 22.03 14.41 22.03 14.87C22.03 15.33 21.85 15.76 21.54 16.09C21.22 16.42 20.79 16.61 20.33 16.62Z" fill="#95AAF1" fill-opacity="1.000000" fill-rule="nonzero"/>
</svg>
