<svg width="42.000000" height="42.000000" viewBox="0 0 42 42" fill="none" xmlns="http://www.w3.org/2000/svg" xmlns:xlink="http://www.w3.org/1999/xlink">
	<desc>
			Created with Pixso.
	</desc>
	<defs/>
	<path id="Vector" d="M34.12 42L7.87 42C5.78 42 3.78 41.17 2.3 39.69C0.82 38.21 0 36.21 0 34.12L0 7.87C0 5.78 0.82 3.78 2.3 2.3C3.78 0.82 5.78 0 7.87 0L34.12 0C36.21 0 38.21 0.82 39.69 2.3C41.17 3.78 42 5.78 42 7.87L42 34.12C42 36.21 41.17 38.21 39.69 39.69C38.21 41.17 36.21 42 34.12 42Z" fill="#F4F6F8" fill-opacity="1.000000" fill-rule="nonzero"/>
	<path id="Vector" d="M31.05 12.09L26.46 10.53C26.32 10.48 26.17 10.48 26.03 10.53L21.44 12.09C21.31 12.14 21.2 12.22 21.12 12.33C21.04 12.44 20.99 12.58 21 12.71L21 16.23C21 20.52 25.78 22.61 25.99 22.69C26.07 22.73 26.16 22.75 26.25 22.75C26.33 22.75 26.42 22.73 26.5 22.69C26.71 22.61 31.5 20.52 31.5 16.23L31.5 12.71C31.5 12.58 31.45 12.44 31.37 12.33C31.29 12.22 31.18 12.14 31.05 12.09ZM29.12 15.41L26.71 18.47C26.64 18.57 26.55 18.64 26.45 18.7C26.34 18.76 26.23 18.79 26.11 18.8C26 18.81 25.88 18.8 25.76 18.77C25.65 18.73 25.55 18.67 25.46 18.6L23.93 17.28C23.76 17.13 23.66 16.92 23.64 16.69C23.63 16.47 23.71 16.24 23.85 16.07C24 15.9 24.21 15.79 24.44 15.77C24.66 15.75 24.89 15.81 25.07 15.96L25.9 16.67L27.75 14.33C27.82 14.24 27.9 14.16 28 14.1C28.11 14.04 28.22 14 28.33 13.99C28.45 13.97 28.56 13.98 28.68 14.01C28.79 14.04 28.89 14.1 28.98 14.17C29.08 14.24 29.15 14.33 29.21 14.43C29.26 14.53 29.3 14.65 29.31 14.76C29.33 14.88 29.32 14.99 29.28 15.11C29.25 15.22 29.19 15.32 29.12 15.41Z" fill="#95AAF1" fill-opacity="1.000000" fill-rule="nonzero"/>
	<path id="Vector" d="M10.92 21C10.81 21 10.7 21.05 10.62 21.13C10.54 21.21 10.5 21.32 10.5 21.43L10.5 29.53C10.5 29.65 10.59 29.75 10.71 29.75L12.79 29.75C12.98 29.75 13.16 29.62 13.21 29.43L15.15 22.6C15.21 22.39 15.18 22.16 15.08 21.97C14.98 21.77 14.81 21.62 14.6 21.54C13.81 21.25 12.6 20.97 10.92 21ZM29.75 25.81C28 25.81 24.5 28.02 22.74 28.02C21 28.02 19.03 26.68 19.03 26.68C19.03 26.68 21.38 27.12 22.74 27.12C24.11 27.12 24.49 26.66 24.49 26.03C24.49 24.5 21.89 24.26 20.58 24.06C19.29 23.34 18.62 22.77 16.48 22.59C16.46 22.71 16.44 22.84 16.41 22.96L14.65 29.16C16.64 30.06 20.07 31.5 21.87 31.5C24.5 31.5 31.5 28 31.5 27.12C31.5 26.25 30.62 25.81 29.75 25.81Z" fill="#5B7DDE" fill-opacity="1.000000" fill-rule="nonzero"/>
</svg>
