<svg width="38.000000" height="38.000000" viewBox="0 0 38 38" fill="none" xmlns="http://www.w3.org/2000/svg" xmlns:xlink="http://www.w3.org/1999/xlink">
	<desc>
			Created with Pixso.
	</desc>
	<defs>
		<clipPath id="clip122_711">
			<rect id="teenyicons:phone-solid" width="15.000000" height="15.000000" transform="translate(11.500000 11.500000)" fill="white" fill-opacity="0"/>
		</clipPath>
	</defs>
	<rect id="Frame 133711" rx="8.000000" width="38.000000" height="38.000000" fill="#F4F6F8" fill-opacity="1.000000"/>
	<rect id="teenyicons:phone-solid" width="15.000000" height="15.000000" transform="translate(11.500000 11.500000)" fill="#FFFFFF" fill-opacity="0"/>
	<g clip-path="url(#clip122_711)">
		<path id="Vector" d="M14 11.5C13.33 11.5 12.7 11.76 12.23 12.23C11.76 12.7 11.5 13.33 11.5 14L11.5 16C11.5 21.79 16.2 26.5 22 26.5L24 26.5C24.66 26.5 25.29 26.23 25.76 25.76C26.23 25.29 26.5 24.66 26.5 24L26.5 22.61C26.5 22.33 26.42 22.06 26.27 21.82C26.12 21.59 25.91 21.4 25.67 21.27L23.25 20.06C23.06 19.97 22.85 19.91 22.63 19.91C22.42 19.9 22.2 19.94 22 20.02C21.81 20.1 21.63 20.23 21.48 20.38C21.33 20.54 21.22 20.73 21.16 20.93L20.86 21.82C20.8 21.99 20.69 22.13 20.54 22.21C20.39 22.3 20.22 22.33 20.05 22.3C18.97 22.08 17.99 21.55 17.21 20.78C16.44 20 15.91 19.02 15.7 17.95C15.66 17.78 15.69 17.6 15.78 17.45C15.86 17.3 16 17.19 16.17 17.13L17.28 16.76C17.63 16.64 17.93 16.39 18.12 16.06C18.3 15.73 18.35 15.34 18.26 14.98L17.67 12.63C17.59 12.31 17.4 12.02 17.14 11.81C16.87 11.61 16.55 11.5 16.21 11.5L14 11.5Z" fill="#5B7DDE" fill-opacity="1.000000" fill-rule="nonzero"/>
	</g>
</svg>
