<svg width="24.000000" height="24.000000" viewBox="0 0 24 24" fill="none" xmlns="http://www.w3.org/2000/svg" xmlns:xlink="http://www.w3.org/1999/xlink">
	<desc>
			Created with Pixso.
	</desc>
	<defs/>
	<path id="Vector" d="M15.92 17.5L17.89 8.22C17.97 7.83 17.92 7.54 17.75 7.37C17.57 7.2 17.34 7.17 17.06 7.28L5.49 11.74C5.23 11.84 5.05 11.95 4.96 12.08C4.86 12.2 4.85 12.32 4.92 12.43C5 12.54 5.14 12.63 5.35 12.69L8.31 13.62L15.18 9.29C15.37 9.16 15.51 9.14 15.61 9.21C15.67 9.25 15.66 9.32 15.56 9.41L10 14.43L9.79 17.49C9.99 17.49 10.19 17.39 10.39 17.19L11.83 15.8L14.83 18.01C15.41 18.33 15.77 18.16 15.92 17.5ZM24 12C24 13.62 23.68 15.17 23.04 16.66C22.41 18.14 21.56 19.41 20.49 20.49C19.41 21.56 18.14 22.41 16.66 23.04C15.17 23.68 13.62 24 12 24C10.37 24 8.82 23.68 7.33 23.04C5.85 22.41 4.58 21.56 3.5 20.49C2.43 19.41 1.58 18.14 0.95 16.66C0.31 15.17 0 13.62 0 12C0 10.37 0.31 8.82 0.95 7.33C1.58 5.85 2.43 4.58 3.5 3.5C4.58 2.43 5.85 1.58 7.33 0.95C8.82 0.31 10.37 0 12 0C13.62 0 15.17 0.31 16.66 0.95C18.14 1.58 19.41 2.43 20.49 3.5C21.56 4.58 22.41 5.85 23.04 7.33C23.68 8.82 24 10.37 24 12Z" fill="#229ED9" fill-opacity="1.000000" fill-rule="nonzero"/>
</svg>
