<svg width="21.000000" height="21.000000" viewBox="0 0 21 21" fill="none" xmlns="http://www.w3.org/2000/svg" xmlns:xlink="http://www.w3.org/1999/xlink">
	<desc>
			Created with Pixso.
	</desc>
	<defs/>
	<path id="Vector" d="M10 -1C16.07 -1 21 3.92 21 10C21 16.07 16.07 20.99 10 20.99C8.05 21 6.14 20.48 4.46 19.5L-1 20.99L0.49 15.53C-0.49 13.85 -1.01 11.94 -1 10C-1 3.92 3.92 -1 10 -1ZM6.25 4.83L6.03 4.83C5.89 4.84 5.75 4.88 5.62 4.94C5.5 5.01 5.39 5.1 5.3 5.2C5.16 5.32 5.09 5.43 5.01 5.53C4.6 6.06 4.38 6.71 4.39 7.38C4.39 7.92 4.53 8.44 4.75 8.93C5.2 9.92 5.94 10.97 6.92 11.95C7.15 12.18 7.38 12.42 7.63 12.64C8.84 13.7 10.29 14.48 11.85 14.89L12.48 14.98C12.68 14.99 12.89 14.98 13.09 14.97C13.41 14.95 13.72 14.86 14.01 14.71C14.15 14.64 14.29 14.56 14.43 14.47C14.43 14.47 14.47 14.44 14.56 14.37C14.71 14.26 14.8 14.18 14.93 14.06C15.02 13.96 15.1 13.85 15.16 13.72C15.24 13.54 15.33 13.2 15.37 12.92C15.39 12.7 15.38 12.58 15.38 12.51C15.38 12.39 15.28 12.27 15.17 12.22L14.53 11.93C14.53 11.93 13.58 11.51 12.99 11.25C12.93 11.22 12.86 11.2 12.8 11.2C12.72 11.19 12.65 11.2 12.57 11.23C12.5 11.25 12.44 11.29 12.38 11.34C12.38 11.34 12.3 11.4 11.51 12.36C11.46 12.43 11.4 12.47 11.33 12.5C11.25 12.52 11.18 12.53 11.1 12.51C11.03 12.49 10.96 12.46 10.89 12.43C10.75 12.38 10.71 12.36 10.61 12.32C9.98 12.04 9.4 11.67 8.88 11.21C8.74 11.09 8.61 10.96 8.48 10.83C8.05 10.42 7.67 9.95 7.36 9.44L7.3 9.33C7.25 9.26 7.21 9.19 7.18 9.11C7.14 8.95 7.25 8.82 7.25 8.82C7.25 8.82 7.52 8.52 7.64 8.37C7.76 8.21 7.87 8.06 7.93 7.95C8.06 7.75 8.1 7.53 8.03 7.37C7.73 6.61 7.41 5.86 7.08 5.12C7.01 4.97 6.82 4.87 6.65 4.85C6.59 4.84 6.53 4.83 6.47 4.83C6.32 4.82 6.17 4.82 6.03 4.83L6.25 4.82L6.25 4.83Z" fill="#08B419" fill-opacity="1.000000" fill-rule="nonzero"/>
</svg>
